<svg id="Capa_1" enable-background="new 0 0 512 512" height="512" viewBox="0 0 512 512" width="512" xmlns="http://www.w3.org/2000/svg"><g><path d="m496 482h-113v-163h33c8.284 0 15-6.716 15-15s-6.716-15-15-15h-9v-146h9c8.284 0 15-6.716 15-15v-83c0-24.813-20.187-45-45-45h-260c-24.813 0-45 20.187-45 45v83c0 8.284 6.716 15 15 15h9v146h-9c-8.284 0-15 6.716-15 15s6.716 15 15 15h33v163h-113c-8.284 0-15 6.716-15 15s6.716 15 15 15h480c8.284 0 15-6.716 15-15s-6.716-15-15-15zm-385-437c0-8.271 6.729-15 15-15h260c8.271 0 15 6.729 15 15v68c-14.176 0-275.782 0-290 0zm24 98h242v146c-7.869 0-29.495 0-39.716 0-7.622-19.898-22.438-36.828-42.304-46.767 20.844-30.872-1.22-73.233-38.98-73.233-37.818 0-59.784 42.421-38.979 73.233-19.834 9.923-34.669 26.835-42.304 46.767-13.485 0-28.082 0-39.716 0v-146zm104 73c0-9.374 7.626-17 17-17s17 7.626 17 17-7.626 17-17 17-17-7.626-17-17zm17 47c19.552 0 37.447 10.244 47.78 26h-95.56c10.333-15.756 28.228-26 47.78-26zm-97 219v-163h194v163z"/><path d="m208 87h96c8.284 0 15-6.716 15-15s-6.716-15-15-15h-96c-8.284 0-15 6.716-15 15s6.716 15 15 15z"/><path d="m304 353h-96c-8.284 0-15 6.716-15 15v64c0 8.284 6.716 15 15 15h96c8.284 0 15-6.716 15-15v-64c0-8.284-6.716-15-15-15zm-15 64h-66v-34h66z"/></g></svg>