<svg id="Layer_1" enable-background="new 0 0 512 512" height="512" viewBox="0 0 512 512" width="512" xmlns="http://www.w3.org/2000/svg"><path d="m478.763 423.569c2.041-5.132 3.175-10.719 3.175-16.57v-7c0-88.538-72.021-161.208-160.547-161.993-11.982-.088-22.842 4.302-31.363 12.748-.89.882-1.727 1.796-2.529 2.729l-12.679-7.32c3.138-6.941.562-15.264-6.175-19.153-7.175-4.144-16.348-1.685-20.49 5.49l-13.5 23.382c-4.142 7.174-1.684 16.348 5.49 20.49 2.362 1.364 4.941 2.012 7.486 2.012 4.711 0 9.298-2.228 12.183-6.245l17.186 9.924v69.937h-87.999v-15c0-24.813-20.187-45-45-45h-15v-4.5c0-27.294-22.206-49.5-49.5-49.5-6.921 0-13.513 1.433-19.5 4.01v-154.59c17.458-6.192 29.999-22.865 29.999-42.42 0-24.813-20.187-45-45-45s-45 20.187-45 45c0 19.554 12.541 36.227 30 42.42v319.58c0 5.856 1.137 11.449 3.181 16.585-19.096 5.205-33.181 22.692-33.181 43.415 0 24.813 20.187 45 45 45h422c24.813 0 45-20.187 45-45 0-20.744-14.112-38.245-33.237-43.431zm-334.762-101.569c8.271 0 15 6.729 15 15v15h-30v-30zm-64.501-54c10.752 0 19.5 8.748 19.5 19.5v64.5c0 16.542 13.458 30 30 30h148c16.542 0 30-13.458 30-30v-69.994c0-4.036 1.278-7.103 4.146-9.944 2.867-2.842 5.981-4.107 9.979-4.057 55.227.49 102.571 35.317 121.727 83.995h-7.852c-8.284 0-15 6.716-15 15s6.716 15 15 15h15.696c.812 5.89 1.242 11.897 1.242 17.999v7c0 8.271-6.729 15-15 15l-361.948.001c-8.266-.006-14.99-6.732-14.99-15v-25.051c7.81-.522 13.989-7.006 13.989-14.949s-6.179-14.426-13.989-14.948v-64.552c0-10.752 8.748-19.5 19.5-19.5zm-34.5-238c8.271 0 15 6.729 15 15 0 8.267-6.721 14.992-14.985 15-.005 0-.01-.001-.015-.001s-.009.001-.014.001c-8.264-.008-14.986-6.733-14.986-15 0-8.271 6.729-15 15-15zm422 452h-422c-8.271 0-15-6.729-15-15s6.729-15 15-15h29.981.019 392c8.271 0 15 6.729 15 15s-6.729 15-15 15z"/></svg>