<svg id="Capa_1" enable-background="new 0 0 512.02 512.02" height="512" viewBox="0 0 512.02 512.02" width="512" xmlns="http://www.w3.org/2000/svg"><g><path d="m507.626 473.904c-5.648-5.648-11.55-11.723-17.798-18.153-46.42-47.778-104.191-107.24-167.632-107.24h-6.372c2.055-5.276 3.195-11.006 3.195-17 0-6.188-1.213-12.094-3.396-17.51 34.473-1.703 62.123-7.717 84.083-18.251 24.485-11.746 42.006-29.528 52.044-52.783.269-.613.525-1.227.769-1.84 13.876-33.751 9.813-72.322-10.878-103.207-30.867-46.057-61.02-69.409-89.621-69.409h-24c-8.284 0-15 6.716-15 15s6.716 15 15 15h9v58h-38.028l-36.225-113.308c-.129-.406-.276-.807-.44-1.199-7.231-17.365-26.273-29.493-46.307-29.493-26.794 0-47 19.759-47 45.96 0 .409.008.83.02 1.252v8.788h-9.02c-8.284 0-15 6.716-15 15s6.716 15 15 15h9.02v58h-38.151l-37.175-113.413c-.122-.37-.257-.735-.407-1.095-7.461-17.917-24.826-29.493-44.237-29.493h-2.05c-13.452 0-25.696 4.999-34.477 14.077-8.435 8.721-12.876 20.485-12.523 33.15v175.377c-.003.132-.02.262-.02.396s.017.264.02.396v63.604c0 8.284 6.716 15 15 15h5.195c-2.055 5.276-3.195 11.006-3.195 17s1.14 11.724 3.195 17h-5.195c-8.284 0-15 6.716-15 15s6.716 15 15 15h26v106c0 8.284 6.716 15 15 15s15-6.716 15-15v-106h50v106c0 8.284 6.716 15 15 15s15-6.716 15-15v-106h50v106c0 8.284 6.716 15 15 15s15-6.716 15-15v-106h50v106c0 8.284 6.716 15 15 15s15-6.716 15-15v-106h11.177c12.873 0 25.882 3.505 38.823 9.443v96.557c0 8.284 6.716 15 15 15s15-6.716 15-15v-78.762c27.516 19.677 53.97 46.902 77.292 70.906 6.325 6.512 12.301 12.661 18.102 18.462 2.929 2.929 6.768 4.394 10.606 4.394s7.678-1.465 10.606-4.394c5.859-5.857 5.859-15.355 0-21.212zm-399.801-125.394c2.055-5.276 3.195-11.006 3.195-17s-1.14-11.724-3.195-17h120.39c-2.055 5.276-3.195 11.006-3.195 17s1.14 11.724 3.195 17zm147.195-17c0-9.374 7.626-17 17-17s17 7.626 17 17-7.626 17-17 17-17-7.626-17-17zm39.28-47h-264.28v-34h381.925c-15.933 17.725-47.731 34-117.645 34zm-260.193-237.065c3.078-3.183 7.664-4.935 12.913-4.935h2.05c7.094 0 13.456 4.133 16.346 10.57l40.351 123.102c2.02 6.162 7.77 10.328 14.254 10.328h64.02c8.284 0 15-6.716 15-15v-112c0-.146-.002-.293-.006-.439-.006-.202-.014-.404-.014-.601 0-9.546 6.832-15.96 17-15.96 7.663 0 15.623 4.602 18.406 10.559l39.325 123.009c1.987 6.215 7.764 10.433 14.288 10.433h63.98c8.284 0 15-6.716 15-15v-68.746c14.805 7.72 32.166 25.695 49.698 51.854 13.245 19.77 17.189 43.778 11.184 65.892h-397.882v-161c0-.167-.003-.333-.008-.5-.155-4.638 1.261-8.637 4.095-11.566zm46.913 284.065c0 9.374-7.626 17-17 17s-17-7.626-17-17 7.626-17 17-17 17 7.626 17 17z"/></g></svg>