<?xml version="1.0" encoding="iso-8859-1"?>
<!-- Generator: Adobe Illustrator 19.0.0, SVG Export Plug-In . SVG Version: 6.00 Build 0)  -->
<svg version="1.1" id="Capa_1" xmlns="http://www.w3.org/2000/svg" xmlns:xlink="http://www.w3.org/1999/xlink" x="0px" y="0px"
	 viewBox="0 0 470.422 470.422" style="enable-background:new 0 0 470.422 470.422;" xml:space="preserve">
<g>
	<path d="M462.922,352.628c-21.037,0-32.056,6.611-41.777,12.444c-9.218,5.53-17.178,10.306-34.06,10.306
		c-16.882,0-24.843-4.776-34.061-10.306c-9.722-5.833-20.74-12.444-41.777-12.444c-21.036,0-32.054,6.611-41.776,12.444
		c-9.217,5.53-17.177,10.306-34.058,10.306c-16.88,0-24.84-4.776-34.057-10.306c-9.721-5.833-20.739-12.444-41.775-12.444
		c-21.035,0-32.052,6.611-41.773,12.444c-9.216,5.53-17.176,10.306-34.055,10.306c-16.88,0-24.84-4.776-34.057-10.306
		c-9.721-5.833-20.739-12.444-41.774-12.444c-4.142,0-7.5,3.358-7.5,7.5s3.358,7.5,7.5,7.5c16.88,0,24.84,4.776,34.057,10.306
		c9.721,5.833,20.739,12.444,41.774,12.444c21.035,0,32.052-6.611,41.773-12.444c9.216-5.53,17.176-10.306,34.055-10.306
		c16.88,0,24.84,4.776,34.057,10.306c9.721,5.833,20.739,12.444,41.775,12.444s32.054-6.611,41.776-12.444
		c9.217-5.53,17.177-10.306,34.058-10.306c16.882,0,24.842,4.776,34.06,10.306c9.722,5.833,20.741,12.444,41.777,12.444
		s32.055-6.611,41.777-12.444c9.218-5.53,17.178-10.306,34.061-10.306c4.142,0,7.5-3.358,7.5-7.5S467.064,352.628,462.922,352.628z"
		/>
	<path d="M462.922,412.628c-21.037,0-32.056,6.611-41.777,12.444c-9.218,5.53-17.178,10.306-34.06,10.306
		c-16.882,0-24.843-4.776-34.061-10.306c-9.722-5.833-20.74-12.444-41.777-12.444c-21.036,0-32.054,6.611-41.776,12.444
		c-9.217,5.53-17.177,10.306-34.058,10.306c-16.88,0-24.84-4.776-34.057-10.306c-9.721-5.833-20.739-12.444-41.775-12.444
		c-21.035,0-32.052,6.611-41.773,12.444c-9.216,5.53-17.176,10.306-34.055,10.306c-16.88,0-24.84-4.776-34.057-10.306
		c-9.721-5.833-20.739-12.444-41.774-12.444c-4.142,0-7.5,3.358-7.5,7.5s3.358,7.5,7.5,7.5c16.88,0,24.84,4.776,34.057,10.306
		c9.721,5.833,20.739,12.444,41.774,12.444c21.035,0,32.052-6.611,41.773-12.444c9.216-5.53,17.176-10.306,34.055-10.306
		c16.88,0,24.84,4.776,34.057,10.306c9.721,5.833,20.739,12.444,41.775,12.444s32.054-6.611,41.776-12.444
		c9.217-5.53,17.177-10.306,34.058-10.306c16.882,0,24.842,4.776,34.06,10.306c9.722,5.833,20.741,12.444,41.777,12.444
		s32.055-6.611,41.777-12.444c9.218-5.53,17.178-10.306,34.061-10.306c4.142,0,7.5-3.358,7.5-7.5S467.064,412.628,462.922,412.628z"
		/>
	<path d="M7.5,331.939h455c4.142,0,7.5-3.358,7.5-7.5V171.405c0-4.142-3.358-7.5-7.5-7.5H343.968c-4.142,0-7.5,3.358-7.5,7.5v23.498
		h-29.95v-41.775c0-22.848-18.588-41.436-41.436-41.436s-41.436,18.588-41.436,41.436v41.775h-29.951v-41.775
		c0-22.848-18.588-41.436-41.436-41.436s-41.436,18.588-41.436,41.436v41.225c-11.323-2.333-22.006-11.859-24.74-22.873
		l-5.432-21.881c-0.831-3.344-3.833-5.693-7.279-5.693H7.5c-4.142,0-7.5,3.358-7.5,7.5v173.034C0,328.581,3.358,331.939,7.5,331.939
		z M455,316.939h-15V178.905h15V316.939z M238.646,153.127c0-14.577,11.859-26.436,26.436-26.436s26.436,11.859,26.436,26.436
		v41.775h-52.872V153.127z M152.259,126.691c14.577,0,26.436,11.859,26.436,26.436v41.775h-52.872v-41.775
		C125.824,138.551,137.683,126.691,152.259,126.691z M71.525,175.093c4.845,19.52,24.395,34.81,44.507,34.81h227.936
		c4.142,0,7.5-3.358,7.5-7.5v-23.498H425v60.625c-93.719-0.149-142.42-3.078-189.551-5.913c-30.906-1.86-62.864-3.782-107.124-4.909
		c-4.188-0.104-7.583,3.166-7.688,7.307c-0.105,4.141,3.166,7.583,7.307,7.688c44,1.12,75.827,3.035,106.605,4.887
		c47.352,2.849,96.282,5.792,190.452,5.94v17.781c-10.809,0.017-21.3,0.07-31.266,0.16c-4.142,0.037-7.47,3.425-7.432,7.567
		c0.037,4.119,3.387,7.433,7.498,7.433c0.023,0,0.046,0,0.069,0c9.922-0.089,20.367-0.142,31.131-0.159v29.627H45v-17.774
		c94.17-0.149,143.1-3.091,190.452-5.94c35.64-2.145,72.494-4.361,128.483-5.358c4.142-0.074,7.439-3.491,7.366-7.632
		c-0.074-4.142-3.516-7.398-7.632-7.366c-56.307,1.002-93.321,3.229-129.117,5.383c-47.13,2.835-95.832,5.764-189.551,5.913v-41.487
		c18.75,0.03,36.555,0.171,53.021,0.422c0.039,0,0.078,0.001,0.117,0.001c4.088,0,7.434-3.283,7.497-7.386
		c0.063-4.142-3.243-7.55-7.385-7.613c-16.54-0.252-34.422-0.394-53.249-0.424v-68.772h22.507L71.525,175.093z M15,158.905h15
		v158.034H15V158.905z"/>
	<path d="M152.259,102.915c22.848,0,41.436-18.588,41.436-41.436s-18.588-41.436-41.436-41.436s-41.436,18.588-41.436,41.436
		S129.412,102.915,152.259,102.915z M152.259,35.043c14.577,0,26.436,11.859,26.436,26.436s-11.859,26.436-26.436,26.436
		s-26.436-11.859-26.436-26.436S137.683,35.043,152.259,35.043z"/>
	<path d="M265.082,102.915c22.848,0,41.436-18.588,41.436-41.436s-18.588-41.436-41.436-41.436s-41.436,18.588-41.436,41.436
		S242.234,102.915,265.082,102.915z M265.082,35.043c14.577,0,26.436,11.859,26.436,26.436s-11.859,26.436-26.436,26.436
		s-26.436-11.859-26.436-26.436S250.505,35.043,265.082,35.043z"/>
</g>
<g>
</g>
<g>
</g>
<g>
</g>
<g>
</g>
<g>
</g>
<g>
</g>
<g>
</g>
<g>
</g>
<g>
</g>
<g>
</g>
<g>
</g>
<g>
</g>
<g>
</g>
<g>
</g>
<g>
</g>
</svg>
