<?xml version="1.0" encoding="iso-8859-1"?>
<!-- Generator: Adobe Illustrator 19.0.0, SVG Export Plug-In . SVG Version: 6.00 Build 0)  -->
<svg version="1.1" id="Capa_1" xmlns="http://www.w3.org/2000/svg" xmlns:xlink="http://www.w3.org/1999/xlink" x="0px" y="0px"
	 viewBox="0 0 512 512" style="enable-background:new 0 0 512 512;" xml:space="preserve">
<g>
	<g>
		<g>
			<path d="M87.584,322.647c-2.666-0.529-5.376-0.806-8.094-0.826l-0.048-0.004l-0.074,0.002c-4.961-0.003-9.885,0.861-14.549,2.554
				c-1.045,0.363-2.019,0.86-3.026,1.299v84.421h26.483v-87.261C88.043,322.783,87.818,322.692,87.584,322.647z"/>
			<path d="M361.931,113.602c6.809-11.382,17.084-20.285,29.319-25.406l-111.7-68.264l34.806,63.812
				C334.082,85.499,351.773,96.601,361.931,113.602z"/>
			<path d="M308.966,101.127c-20.975,0-39.053,14.76-43.25,35.31h16.767h69.733C348.019,115.887,329.94,101.127,308.966,101.127z"/>
			<path d="M203.034,101.127c-20.975,0-39.053,14.76-43.25,35.31h78.56h7.94C242.088,115.887,224.009,101.127,203.034,101.127z"/>
			<path d="M256,113.602c8.609-14.379,22.679-24.653,38.996-28.477L256,13.631l-38.996,71.493
				C233.321,88.949,247.391,99.224,256,113.602z"/>
			<path d="M150.069,113.602c10.158-17.001,27.849-28.104,47.575-29.857l34.806-63.812l-111.7,68.264
				C132.985,93.317,143.26,102.22,150.069,113.602z"/>
			<polygon points="256,154.093 247.172,154.093 247.172,410.093 273.655,410.093 273.655,154.093 			"/>
			<path d="M447.31,324.416c-7.34-2.701-15.286-3.311-22.953-1.763c-0.216,0.041-0.419,0.124-0.634,0.169v87.27h26.483v-84.43
				C449.242,325.244,448.31,324.764,447.31,324.416z"/>
			<rect x="423.724" y="154.093" width="26.483" height="105.931"/>
			<path d="M371.647,136.438h86.5c-4.197-20.551-22.275-35.31-43.25-35.31S375.843,115.887,371.647,136.438z"/>
			<path d="M97.103,101.127c-20.965,0.027-39.028,14.775-43.25,35.31h86.5C136.132,115.902,118.068,101.155,97.103,101.127z"/>
			<rect x="61.793" y="154.093" width="26.483" height="105.931"/>
			<path d="M494.345,471.886H17.655c-4.873,0.005-8.823,3.954-8.828,8.828v17.655h494.345v-17.655
				C503.168,475.84,499.218,471.891,494.345,471.886z"/>
			<path d="M44.138,436.575v17.655h423.724v-17.655c-0.005-4.873-3.954-8.823-8.828-8.828H52.966
				C48.092,427.753,44.143,431.702,44.138,436.575z"/>
			<path d="M18.349,365.955c4.337,0.019,8.027-3.157,8.654-7.448c2.76-19.532,16.178-35.895,34.79-42.428
				c11.41-4.12,23.901-4.12,35.31,0c18.612,6.532,32.031,22.896,34.79,42.428c0.627,4.291,4.317,7.467,8.654,7.448h9.521
				c4.875,0,8.828-3.952,8.828-8.828v-52.966v-4.414v-22.069c0-4.875,3.952-8.828,8.828-8.828h17.655
				c4.682,0,9.173-1.86,12.484-5.171c6.895-6.895,6.895-18.073,0-24.968l-38.967-40.481c0,0-26.483,0-26.483,35.31
				c0,35.31-35.31,35.31-35.31,35.31H35.31C15.809,268.851,0,284.66,0,304.162v52.966c0,4.875,3.952,8.828,8.828,8.828H18.349z"/>
			<path d="M476.69,268.851h-61.793c0,0-35.31,0-35.31-35.31c0-35.31-26.483-35.31-26.483-35.31l-38.967,40.481
				c-6.895,6.895-6.895,18.073,0,24.968c3.311,3.311,7.802,5.171,12.484,5.171h17.655c4.875,0,8.828,3.952,8.828,8.828v22.069v4.414
				v52.966c0,4.875,3.952,8.828,8.828,8.828h9.521c4.337,0.019,8.027-3.157,8.654-7.448c2.76-19.532,16.178-35.895,34.79-42.428
				c11.41-4.12,23.901-4.12,35.31,0c18.612,6.532,32.031,22.896,34.79,42.428c0.627,4.291,4.317,7.467,8.654,7.448h9.521
				c4.875,0,8.828-3.952,8.828-8.828v-52.966C512,284.66,496.191,268.851,476.69,268.851z"/>
		</g>
	</g>
</g>
<g>
</g>
<g>
</g>
<g>
</g>
<g>
</g>
<g>
</g>
<g>
</g>
<g>
</g>
<g>
</g>
<g>
</g>
<g>
</g>
<g>
</g>
<g>
</g>
<g>
</g>
<g>
</g>
<g>
</g>
</svg>
