<?xml version="1.0" encoding="iso-8859-1"?>
<!-- Generator: Adobe Illustrator 19.0.0, SVG Export Plug-In . SVG Version: 6.00 Build 0)  -->
<svg version="1.1" id="Capa_1" xmlns="http://www.w3.org/2000/svg" xmlns:xlink="http://www.w3.org/1999/xlink" x="0px" y="0px"
	 viewBox="0 0 512 512" style="enable-background:new 0 0 512 512;" xml:space="preserve">
<g>
	<g>
		<g>
			<path d="M213.785,375.506c-16.553,0-30.02,13.467-30.02,30.02c0,16.553,13.467,30.02,30.02,30.02s30.02-13.467,30.02-30.02
				C243.805,388.973,230.338,375.506,213.785,375.506z M213.785,415.533c-5.518,0-10.007-4.489-10.007-10.007
				c0-5.518,4.489-10.007,10.007-10.007c5.518,0,10.007,4.489,10.007,10.007C223.792,411.044,219.303,415.533,213.785,415.533z"/>
			<path d="M283.832,375.506c-16.553,0-30.02,13.467-30.02,30.02c0,16.553,13.467,30.02,30.02,30.02
				c16.553,0,30.02-13.467,30.02-30.02C313.852,388.973,300.385,375.506,283.832,375.506z M283.832,415.533
				c-5.518,0-10.007-4.489-10.007-10.007c0-5.518,4.489-10.007,10.007-10.007c5.518,0,10.007,4.489,10.007,10.007
				C293.839,411.044,289.35,415.533,283.832,415.533z"/>
			<path d="M353.879,375.506c-16.553,0-30.02,13.467-30.02,30.02c0,16.553,13.467,30.02,30.02,30.02s30.02-13.467,30.02-30.02
				C383.9,388.973,370.433,375.506,353.879,375.506z M353.879,415.533c-5.518,0-10.007-4.489-10.007-10.007
				c0-5.518,4.489-10.007,10.007-10.007c5.518,0,10.007,4.489,10.007,10.007C363.886,411.044,359.397,415.533,353.879,415.533z"/>
			<path d="M511.409,251.348c-1.866-5.201-7.596-7.905-12.799-6.039l-141.635,50.733c-3.979,1.425-6.632,5.195-6.632,9.42v24.175
				c0,2.855-2.412,5.267-5.267,5.267h-57.204l-0.136-155.363c9.544,7.949,21.807,12.741,35.17,12.741
				c18.601,0,35.063-9.283,45.03-23.452c9.968,14.168,26.43,23.452,45.03,23.452c26.929,0,49.387-19.446,54.108-45.03h5.931
				c5.527,0,10.007-4.48,10.007-10.007c0-5.527-4.48-10.007-10.007-10.007h-147.12l7.716-24.412
				c1.534-4.852,0.617-10.087-2.515-14.361c-3.724-5.082-10.292-8.367-16.732-8.367h-26.704l-0.058-66.185
				c0-0.055-0.007-0.108-0.008-0.163c-0.003-0.21-0.016-0.42-0.033-0.631c-0.01-0.129-0.021-0.258-0.036-0.386
				c-0.022-0.186-0.052-0.371-0.085-0.556c-0.027-0.154-0.055-0.307-0.089-0.459c-0.034-0.15-0.075-0.299-0.116-0.449
				c-0.05-0.183-0.103-0.363-0.163-0.542c-0.041-0.121-0.086-0.241-0.132-0.362c-0.076-0.198-0.156-0.394-0.244-0.586
				c-0.022-0.05-0.039-0.101-0.062-0.15c-0.03-0.063-0.066-0.119-0.097-0.18c-0.092-0.184-0.188-0.364-0.291-0.541
				c-0.072-0.123-0.146-0.244-0.221-0.363c-0.093-0.146-0.19-0.288-0.29-0.429c-0.098-0.138-0.199-0.273-0.303-0.404
				c-0.09-0.113-0.182-0.222-0.276-0.331c-0.123-0.142-0.248-0.281-0.377-0.415c-0.091-0.094-0.185-0.185-0.28-0.275
				c-0.138-0.131-0.277-0.26-0.422-0.383c-0.104-0.088-0.211-0.173-0.319-0.257c-0.141-0.11-0.282-0.218-0.428-0.319
				c-0.127-0.089-0.258-0.172-0.389-0.256c-0.133-0.084-0.267-0.168-0.404-0.245c-0.153-0.087-0.309-0.168-0.467-0.246
				c-0.124-0.062-0.248-0.124-0.374-0.181c-0.171-0.077-0.346-0.147-0.522-0.214c-0.125-0.048-0.249-0.095-0.375-0.137
				c-0.174-0.059-0.351-0.111-0.529-0.161c-0.141-0.039-0.282-0.076-0.424-0.109c-0.161-0.037-0.324-0.069-0.488-0.098
				c-0.172-0.031-0.345-0.057-0.519-0.079c-0.138-0.017-0.276-0.031-0.415-0.042c-0.206-0.017-0.412-0.027-0.619-0.031
				c-0.067-0.001-0.132-0.01-0.199-0.01c-0.002,0-0.006,0-0.009,0c-0.054,0-0.105,0.007-0.158,0.008
				c-0.214,0.003-0.428,0.016-0.643,0.033c-0.125,0.01-0.251,0.02-0.375,0.035c-0.189,0.023-0.378,0.053-0.567,0.087
				c-0.15,0.027-0.3,0.054-0.447,0.087c-0.154,0.035-0.308,0.077-0.461,0.119c-0.179,0.049-0.357,0.101-0.531,0.16
				c-0.124,0.042-0.246,0.088-0.368,0.135c-0.197,0.075-0.391,0.155-0.582,0.242c-0.05,0.023-0.101,0.039-0.15,0.063l-69.998,33.267
				c-3.618,1.719-5.862,5.431-5.704,9.433c0.158,4.003,2.688,7.525,6.431,8.953L265.76,80.1h-24.361
				c-6.44,0-13.008,3.284-16.732,8.367c-3.131,4.274-4.048,9.508-2.515,14.361l7.716,24.412H82.744
				c-5.527,0-10.007,4.48-10.007,10.007s4.48,10.007,10.007,10.007h5.932c4.721,25.584,27.179,45.03,54.108,45.03
				c18.601,0,35.063-9.283,45.03-23.452c9.968,14.168,26.43,23.452,45.03,23.452c13.227,0,25.376-4.692,34.878-12.496l0.136,155.119
				h-57.185c-0.559,0-1.108-0.091-1.63-0.265v-89.219c0-5.527-4.48-10.007-10.007-10.007H10.007C4.48,235.414,0,239.894,0,245.421
				s4.48,10.007,10.007,10.007h17.662v29.122H10.007C4.48,284.55,0,289.03,0,294.556c0,5.527,4.48,10.007,10.007,10.007h17.662
				v39.129c0,5.527,4.48,10.007,10.007,10.007h63.905v13.499c-0.043,0.494-0.05,0.995-0.019,1.496
				c0.006,0.101,0.014,0.202,0.022,0.314c0.254,22.198,5.86,42.485,16.488,60.331h-6.485c-5.527,0-10.007,4.48-10.007,10.007v58.73
				c0,5.527,4.48,10.007,10.007,10.007h58.729c5.527,0,10.007-4.48,10.007-10.007v-14.663
				c29.213,13.979,64.438,21.534,101.555,21.534c44.491,0,86.106-10.871,117.182-30.611c36.053-22.901,55.11-55.583,55.11-94.513
				v-97.336l51.2-18.34C510.572,262.28,513.276,256.549,511.409,251.348z M446.526,147.252
				c-4.317,14.45-17.724,25.017-33.559,25.017c-15.835,0-29.243-10.567-33.56-25.017H446.526z M142.785,172.269
				c-15.835,0-29.243-10.567-33.56-25.017h67.118C172.027,161.702,158.62,172.269,142.785,172.269z M356.465,147.252
				c-4.317,14.45-17.724,25.017-33.559,25.017c-15.835,0-29.242-10.566-33.56-25.017H356.465z M233.019,46.183l34.575-16.432
				l0.026,29.637L233.019,46.183z M232.846,172.269c-15.835,0-29.243-10.567-33.56-25.017h67.118
				C262.088,161.703,248.681,172.269,232.846,172.269z M251.122,127.238c-0.275-0.469-0.682-1.31-1.126-2.713l-7.716-24.413
				l71.19-0.001l-7.717,24.414c-0.443,1.402-0.851,2.243-1.126,2.713H251.122z M47.682,255.427h141.349v29.122H47.682V255.427z
				 M160.309,488.069h-38.715v-38.716h11.448c7.647,8.308,16.637,15.887,26.948,22.649c0.105,0.069,0.214,0.135,0.319,0.204V488.069
				z M434.157,379.822L434.157,379.822c-0.001,40.093-24.922,64.339-45.828,77.619c-27.908,17.727-65.712,27.491-106.451,27.491
				c-76.711,0-159.59-36.451-160.284-116.479c0-0.048-0.001-0.097-0.002-0.146c0.002-0.079,0.003-0.157,0.003-0.236v-14.372h8.727
				c5.527,0,10.007-4.48,10.007-10.007s-4.48-10.007-10.007-10.007h-82.64v-29.123h141.349v34.94c0,2.374,0.844,4.67,2.381,6.479
				c4.826,5.68,11.847,8.938,19.263,8.938h134.402c13.939,0,25.28-11.341,25.28-25.28v-17.131l29.258-10.48v27.252
				c0,5.527,4.48,10.007,10.007,10.007s10.007-4.48,10.007-10.007V294.86l14.529-5.204V379.822z"/>
			<path d="M159.901,333.685h-0.475c-5.527,0-10.007,4.48-10.007,10.007s4.48,10.007,10.007,10.007h0.475
				c5.527,0,10.007-4.48,10.007-10.007S165.427,333.685,159.901,333.685z"/>
			<path d="M409.621,348.378c-5.527,0-10.007,4.48-10.007,10.007v0.475c0,5.527,4.48,10.007,10.007,10.007
				s10.007-4.48,10.007-10.007v-0.475C419.628,352.858,415.148,348.378,409.621,348.378z"/>
		</g>
	</g>
</g>
<g>
</g>
<g>
</g>
<g>
</g>
<g>
</g>
<g>
</g>
<g>
</g>
<g>
</g>
<g>
</g>
<g>
</g>
<g>
</g>
<g>
</g>
<g>
</g>
<g>
</g>
<g>
</g>
<g>
</g>
</svg>
