<svg xmlns="http://www.w3.org/2000/svg" height="512pt" version="1.1" viewBox="-147 0 512 512" width="512pt">
<g id="surface1">
<path d="M 160.660156 467 L 146 467 L 146 447.875 C 146 443.730469 142.644531 440.375 138.5 440.375 C 134.355469 440.375 131 443.730469 131 447.875 L 131 467 L 86 467 L 86 192.332031 C 86 188.191406 82.644531 184.832031 78.5 184.832031 C 74.355469 184.832031 71 188.191406 71 192.332031 L 71 467 L 56.339844 467 C 45.675781 467 37 475.675781 37 486.339844 L 37 504.5 C 37 508.644531 40.355469 512 44.5 512 L 172.5 512 C 176.644531 512 180 508.644531 180 504.5 L 180 486.339844 C 180 475.675781 171.324219 467 160.660156 467 Z M 165 497 L 52 497 L 52 486.339844 C 52 483.945312 53.945312 482 56.339844 482 L 78.378906 482 C 78.425781 482 78.46875 482.007812 78.515625 482.007812 L 138.488281 482.007812 C 138.53125 482.007812 138.578125 482 138.621094 482 L 160.660156 482 C 163.054688 482 165 483.945312 165 486.339844 Z M 165 497 " style=" stroke:none;fill-rule:nonzero;fill:rgb(0%,0%,0%);fill-opacity:1;" />
<path d="M 116 170.5 C 116 174.640625 112.640625 178 108.5 178 C 104.359375 178 101 174.640625 101 170.5 C 101 166.359375 104.359375 163 108.5 163 C 112.640625 163 116 166.359375 116 170.5 Z M 116 170.5 " style=" stroke:none;fill-rule:nonzero;fill:rgb(0%,0%,0%);fill-opacity:1;" />
<path d="M 116 210.5 C 116 214.640625 112.640625 218 108.5 218 C 104.359375 218 101 214.640625 101 210.5 C 101 206.359375 104.359375 203 108.5 203 C 112.640625 203 116 206.359375 116 210.5 Z M 116 210.5 " style=" stroke:none;fill-rule:nonzero;fill:rgb(0%,0%,0%);fill-opacity:1;" />
<path d="M 116 250.5 C 116 254.640625 112.640625 258 108.5 258 C 104.359375 258 101 254.640625 101 250.5 C 101 246.359375 104.359375 243 108.5 243 C 112.640625 243 116 246.359375 116 250.5 Z M 116 250.5 " style=" stroke:none;fill-rule:nonzero;fill:rgb(0%,0%,0%);fill-opacity:1;" />
<path d="M 116 290.5 C 116 294.640625 112.640625 298 108.5 298 C 104.359375 298 101 294.640625 101 290.5 C 101 286.359375 104.359375 283 108.5 283 C 112.640625 283 116 286.359375 116 290.5 Z M 116 290.5 " style=" stroke:none;fill-rule:nonzero;fill:rgb(0%,0%,0%);fill-opacity:1;" />
<path d="M 116 330.5 C 116 334.640625 112.640625 338 108.5 338 C 104.359375 338 101 334.640625 101 330.5 C 101 326.359375 104.359375 323 108.5 323 C 112.640625 323 116 326.359375 116 330.5 Z M 116 330.5 " style=" stroke:none;fill-rule:nonzero;fill:rgb(0%,0%,0%);fill-opacity:1;" />
<path d="M 116 370.5 C 116 374.640625 112.640625 378 108.5 378 C 104.359375 378 101 374.640625 101 370.5 C 101 366.359375 104.359375 363 108.5 363 C 112.640625 363 116 366.359375 116 370.5 Z M 116 370.5 " style=" stroke:none;fill-rule:nonzero;fill:rgb(0%,0%,0%);fill-opacity:1;" />
<path d="M 116 410.5 C 116 414.640625 112.640625 418 108.5 418 C 104.359375 418 101 414.640625 101 410.5 C 101 406.359375 104.359375 403 108.5 403 C 112.640625 403 116 406.359375 116 410.5 Z M 116 410.5 " style=" stroke:none;fill-rule:nonzero;fill:rgb(0%,0%,0%);fill-opacity:1;" />
<path d="M 202.519531 70.980469 L 202.519531 56 C 202.519531 43.59375 192.425781 33.5 180.019531 33.5 C 167.613281 33.5 157.519531 43.59375 157.519531 56 L 157.519531 69.5 L 156.832031 69.5 L 156.832031 56 C 156.832031 47.855469 152.480469 40.707031 145.980469 36.757812 C 145.582031 16.421875 128.929688 0 108.5 0 C 88.070312 0 71.417969 16.421875 71.019531 36.757812 C 64.519531 40.703125 60.167969 47.855469 60.167969 56 L 60.167969 69.5 L 59.480469 69.5 L 59.480469 56 C 59.480469 43.59375 49.386719 33.5 36.980469 33.5 C 24.574219 33.5 14.480469 43.59375 14.480469 56 L 14.480469 70.980469 C 6.023438 74.21875 0 82.417969 0 92 C 0 104.40625 10.09375 114.5 22.5 114.5 L 37 114.5 L 37 125.160156 C 37 135.824219 45.675781 144.5 56.339844 144.5 L 71 144.5 L 71 159.332031 C 71 163.476562 74.355469 166.832031 78.5 166.832031 C 82.644531 166.832031 86 163.476562 86 159.332031 L 86 144.5 L 131 144.5 L 131 415.875 C 131 420.019531 134.355469 423.375 138.5 423.375 C 142.644531 423.375 146 420.019531 146 415.875 L 146 144.5 L 160.660156 144.5 C 171.324219 144.5 180 135.824219 180 125.160156 L 180 114.5 L 194.5 114.5 C 206.90625 114.5 217 104.40625 217 92 C 217 82.417969 210.976562 74.21875 202.519531 70.980469 Z M 172.519531 56 C 172.519531 51.863281 175.882812 48.5 180.019531 48.5 C 184.15625 48.5 187.519531 51.863281 187.519531 56 L 187.519531 69.5 L 172.519531 69.5 Z M 134.332031 48.5 C 138.46875 48.5 141.832031 51.863281 141.832031 56 L 141.832031 69.5 L 126.832031 69.5 L 126.832031 56 C 126.832031 51.863281 130.195312 48.5 134.332031 48.5 Z M 108.5 15 C 119.644531 15 128.921875 23.148438 130.691406 33.800781 C 120.011719 35.546875 111.832031 44.835938 111.832031 56 L 111.832031 69.5 L 105.167969 69.5 L 105.167969 56 C 105.167969 44.835938 96.988281 35.546875 86.308594 33.800781 C 88.078125 23.148438 97.355469 15 108.5 15 Z M 75.167969 56 C 75.167969 51.863281 78.53125 48.5 82.667969 48.5 C 86.804688 48.5 90.167969 51.863281 90.167969 56 L 90.167969 69.5 L 75.167969 69.5 Z M 29.480469 56 C 29.480469 51.863281 32.84375 48.5 36.980469 48.5 C 41.117188 48.5 44.480469 51.863281 44.480469 56 L 44.480469 69.5 L 29.480469 69.5 Z M 194.5 99.5 L 156.5 99.5 C 152.355469 99.5 149 102.855469 149 107 C 149 111.144531 152.355469 114.5 156.5 114.5 L 165 114.5 L 165 125.160156 C 165 127.554688 163.054688 129.5 160.660156 129.5 L 56.339844 129.5 C 53.945312 129.5 52 127.554688 52 125.160156 L 52 114.5 L 124.667969 114.5 C 128.808594 114.5 132.167969 111.144531 132.167969 107 C 132.167969 102.855469 128.808594 99.5 124.667969 99.5 L 22.5 99.5 C 18.363281 99.5 15 96.136719 15 92 C 15 87.863281 18.363281 84.5 22.5 84.5 L 194.5 84.5 C 198.636719 84.5 202 87.863281 202 92 C 202 96.136719 198.636719 99.5 194.5 99.5 Z M 194.5 99.5 " style=" stroke:none;fill-rule:nonzero;fill:rgb(0%,0%,0%);fill-opacity:1;" />
</g>
</svg>